<svg xmlns="http://www.w3.org/2000/svg" fill="none" viewBox="0 0 169 67"><path fill="#F47B20" d="M69.575 1.388c-7.595.184-12.896 5.405-15.397 8.487 0 0-.114.138-.206.253-.16-.046-.298-.115-.298-.115-5.209-1.886-11.083-2.23-17.003-1.035-5.69 1.173-13.882 4.117-19.802 8.901C6.43 26.321.922 36.51 1.404 46.538c.275 5.796 2.937 10.833 7.71 14.513 7.824 6.05 20.742 4.67 25.951 3.795 5.805-.989 96.829-17.342 108.761-19.619 10.876-2.093 21.224-5.773 23.289-18.653.115-.76.184-1.541.184-2.3v-.116c0-3.15-.987-6.095-2.685-8.096-3.189-3.703-8.535-4.14-12.298-4.14-5.186-.023-61.012 1.058-67.368 1.173h-.413l-.046-.414c-.344-2.553-1.377-4.876-2.983-6.716-1.927-2.162-5.552-4.738-11.931-4.577z"/><path fill="#232E83" d="M69.53.008c-7.848.184-13.4 5.406-16.016 8.51-5.3-1.793-11.22-2.092-17.117-.896-5.851 1.196-14.272 4.232-20.399 9.2C5.214 25.539-.453 36.119.028 46.608c.299 6.21 3.144 11.592 8.238 15.525 8.26 6.394 21.637 4.968 27.006 4.07 5.69-.965 96.623-17.296 108.784-19.619 11.358-2.162 22.165-6.072 24.391-19.78.138-.851.207-1.679.207-2.507.023-3.52-1.079-6.854-3.006-9.108-3.557-4.14-9.316-4.623-13.331-4.623-3.213 0-26.25.39-66.657 1.173-.481-2.53-1.56-4.807-3.143-6.624-2.111-2.438-6.08-5.29-12.987-5.107zM54.547 10.152c2.455-3.036 7.64-8.142 15.052-8.326 6.195-.161 9.706 2.346 11.564 4.462 1.56 1.77 2.547 4.002 2.868 6.463l.092.828.826-.023c6.356-.115 62.136-1.196 67.368-1.173 3.648 0 8.879.437 11.931 4.002 1.629 1.909 2.57 4.738 2.57 7.774v.115c0 .759-.069 1.495-.184 2.231-2.019 12.581-12.206 16.215-22.922 18.262-11.931 2.277-102.956 18.63-108.76 19.62-5.14.874-17.898 2.23-25.585-3.703-4.658-3.588-7.25-8.487-7.526-14.168-.459-9.89 4.956-19.919 15.282-28.268 5.874-4.738 13.973-7.66 19.595-8.81 5.851-1.195 11.633-.85 16.75 1.013l.62.23.459-.53z"/><path fill="#fff" d="M161.404 25.884l-.481-1.104-.161-.368c-.023-.023-.046-.069-.092-.069-.046-.023-.137-.023-.252.07l-1.767 1.333.046-.736c.115-1.495-.161-4.186-1.423-5.428-1.17-1.15-2.822-1.679-4.818-1.54-2.088.16-4.314.942-5.76 2.138-2.156 1.771-3.51 4.9-3.51 4.9s.115-.99.115-1.887c0-1.472-.391-2.645-1.194-3.45-.94-1.012-2.409-1.426-4.313-1.288-.666.046-2.341.621-3.373 1.656a97.13 97.13 0 0 1 .413-1.357l-7.159.368-2.042 1.564-1.308 5.888s-.092-.23-.138-.322c-.711-1.564-2.111-2.944-4.337-2.737a8.597 8.597 0 0 0-3.487 1.081l-.666.391 1.377-5.612-8.765.345-2.685 2.346.62-2.3-9.683.092-.436 1.61-.023-.023-.367-.506c-.367-.506-1.033-.943-1.492-1.127-2.065-.828-5.92-.115-7.755 1.45-4.245 3.587-4.429 9.613-4.681 13.179-.183 2.69-.436 3.772-.665 4.002.068-1.932-.964-3.565-2.02-4.278-1.4-.943-3.395-.966-5.116-.391-3.672 1.242-4.383 3.335-4.383 3.335l5.484-16.193s-2.18.07-3.098.115c3.006-.805 4.796-2.829 4.957-5.68v-.139-.115c0-1.426-.643-2.875-1.767-3.887-.85-.759-2.777-1.564-4.681-1.587-1.033 0-2.386.207-3.648.575-1.675.483-4.957 2.323-5.347 5.888-.183 1.748.07 2.921.941 4.025.367.46 1.17.99 2.157 1.196-1.24.046-2.226.07-2.295.07-.16.137-1.583 1.471-1.697 1.563-.207.644-1.538 5.014-2.479 7.452-.826 2.163-1.79 4.233-2.845 6.073-3.097 5.45-7.067 8.947-11.45 10.12-3.143.85-5.415.782-7.32-.184-1.926-.966-3.303-3.91-3.28-6.992.023-3.243 1.445-7.521 2.409-9.407 3.327-6.556 5.989-8.235 8.375-9.109 1.973-.713 3.35-.529 3.648-.345-.481.3-.872.506-.872.506-3.395 1.978-5.667 5.175-5.92 8.396-.16 2.024.436 3.84 1.675 5.129 1.217 1.265 3.03 1.863 5.094 1.656 4.681-.437 9.064-4.991 9.362-9.753.184-2.69-.505-4.876-2.02-6.532-2.523-2.76-5.506-3.726-10.967-3.588-5.002.138-10.624 2.07-15.442 5.313-4.107 2.76-9.568 7.82-12.207 16.17-1.56 4.945-.298 11.247 2.891 14.352 4.268 4.14 9.66 5.221 18.035 3.565 5.667-1.127 11.197-4.324 16.429-9.568l.459-.46.092.644c.183 1.127.573 2.07 1.193 2.806.986 1.219 3.006 2.53 7.067 1.978 2.707-.368 5.805-1.771 9.453-4.301l.184-.115.183.115c1.584 1.035 3.74 1.978 7.664 1.15l.07-.023c1.468-.3 5.368-1.127 8.466-5.543.413-.598.826-1.311 1.262-2.3l.528-1.173.091 1.288c.138 1.794.39 3.082 1.285 3.956 1.102 1.08 2.754 1.518 4.658 1.219 3.694-.575 6.218-3.657 7.825-5.911l.321-.437.252.483c1.308 2.507 4.796 3.726 8.903 3.105 3.901-.598 5.851-2.415 7.526-4.44l.321-.413-.757 3.105 10.096-1.587 1.836-7.59s-.046 2.047.183 3.15c.23 1.105.689 2.025 1.125 2.462.986.966 2.638 1.15 3.694.989 1.629-.253 4.038-.99 6.264-4.347l.344-.53.23.576c.711 1.702 3.327 2.829 5.736 2.438 3.258-.53 5.713-2.392 7.113-5.383l.069-.137.137-.046c1.675-.53 3.305-2.277 3.763-4.095.023-.184.115-.62.023-.943zm-55.849-3.61a.672.672 0 0 0 .046-.208c0 .023 0 .092-.046.207z"/><path fill="#232E83" d="M69.51 20.042c3.166-.138 6.263-1.564 6.516-4.853.16-2.208-1.515-4.485-5.002-4.692-1.928-.115-3.695.345-4.957 1.31-.963.737-1.629 1.726-1.927 2.99-.344 1.427-.184 2.623.505 3.543.918 1.173 2.661 1.794 4.864 1.702z"/><path fill="#232E83" d="M160.325 25.424c-.459 1.012-1.4 2.047-2.226 2.185l-.367.092s.344-2.231.344-2.898c.069-3.06-.642-6.256-5.415-6.003-2.914.16-7.182 2.714-7.847 8.21v.047c0 .023-.023.069-.023.115-.734 1.909-2.065 4.6-3.006 4.715a.63.63 0 0 1-.528-.184c-.183-.161-.275-.437-.252-.782.023-.598.252-1.495.528-2.668.39-1.541.711-2.99.872-4.6.344-3.75-1.951-4.485-4.314-4.301-1.744.138-3.373 1.173-3.832 1.702l-.849.966s.39-1.84.505-2.346c-.689.023-4.888.16-5.324.184l-1.881 7.613c-.643.874-1.56 1.587-2.318 1.794l-.367.092-.046-.391a9.746 9.746 0 0 0-.183-1.15c-.115-.851-.849-3.772-3.694-3.542-7.32.62-7.113 9.706-2.731 8.418l.505-.161-.092.552c-.573 3.611-2.134 5.52-4.222 5.796a.969.969 0 0 1-.849-.276c-.367-.345-.573-1.012-.55-1.794.046-1.77 3.556-16.537 3.556-16.537s-6.333.23-6.792.253c-.321 1.357-1.721 7.222-1.744 7.245l-.206.782c-.275.989-.459 1.656-.574 2.346v.046c-.023.046-.023.092-.046.115-1.055 2.783-2.937 5.796-4.359 5.957-.276.023-.528-.046-.711-.23-.207-.184-.322-.483-.299-.828v-.023l.115-1.219s3.625-13.225 3.855-14.1c-.803.024-7.756.162-7.756.162l-.688 2.415c-.184-1.955-4.314-4.6-7.411-1.794-3.282 2.967-4.176 7.406-4.681 11.776 0 0-.046.161-.046.184-.689 5.267-1.905 8.878-5.576 9.361-.826.115-1.583.07-2.11-.253 1.261-.966 2.041-1.748 2.638-2.76 1.354-2.254.734-4.232-.666-5.175-2.845-1.863-5.942.414-6.493 3.312-.344 1.771.275 3.266.826 4.14-.987.552-1.767 1.173-3.12 1.357-.804.115-1.607-.299-1.86-.667-.802-1.104.276-4.623.437-5.083 0 0 5.025-14.973 5.323-15.893-.872.046-10.119.345-10.578.368-.321.943-1.491 4.6-2.684 7.981-2.364 6.601-9.247 15.64-16.314 17.457-3.764.99-6.7.805-8.582-.345-2.547-1.564-3.992-5.336-3.006-10.603.689-3.726 1.308-5.106 2.295-7.222 5.92-12.627 15.442-9.775 14.845-8.81-.963.323-1.812.829-1.812.829-1.515.805-3.97 3.197-4.062 6.164-.069 1.909.46 3.45 1.492 4.462 1.01.989 2.5 1.449 4.176 1.288 3.763-.345 6.815-3.174 6.952-7.383.07-2.277-.55-4.14-1.881-5.52-2.111-2.208-4.59-3.312-10.096-3.151-8.49.23-21.454 6.348-25.171 19.872-1.262 4.577.39 10.074 3.12 12.581 3.786 3.474 8.49 4.762 16.727 3.198 7.343-1.38 13.355-6.395 17.783-11.662 0 .092 0 .161-.023.253-1.032 3.864.39 7.981 6.815 7.153 2.684-.345 7.411-1.886 10.715-4.462 1.515 1.334 4.13 2.093 7.113 1.656 1.216-.184 4.36-1.012 7.09-4.968 2.18-3.128 3.259-9.2 3.855-12.49.276-1.517.46-2.53.689-2.966.206-.391.39-.874.963-1.127 1.148-.483 1.744.644 1.515 1.472-.23.828-1.423 5.037-1.423 5.037l-.23.667c-.71 2.047-1.49 4.37-1.56 6.808-.045 1.794.413 3.22 1.354 4.094.872.805 2.111 1.127 3.58.92 4.038-.598 6.929-4.692 8.283-7.107l.184-.345.275-.483.161.897c.642 3.588 3.464 5.014 7.686 4.393 5.484-.805 8.788-3.657 9.798-8.625l.046-.207.183-.069c.505-.184 1.01-.46 1.515-.782l.413-.276-1.951 7.935c.781-.115 5.92-.989 6.333-1.035.115-.483 2.364-10.12 2.364-10.12.39-1.68 1.468-4.853 2.707-4.922.23-.023.459.069.643.276.275.276.413.736.413 1.265-.023 1.058-.345 2.23-.735 3.588-.458 1.633-.94 3.657-1.124 5.635-.298 3.358 2.501 3.335 3.35 3.197 1.996-.299 4.635-1.334 6.884-6.302l.114.529c.574 2.76 3.029 4.393 5.599 3.98 3.167-.484 5.323-2.209 6.517-5.061l.091-.184.184-.023c1.239-.138 2.96-1.587 3.396-3.266-.184-.07-.207-.414-.436-.713zm-83.957 10.58c1.124.046 1.583.76.964 2.14-.322.69-1.194 1.724-2.364 2.598-1.445-2.254-.046-4.807 1.4-4.738zm42.082-6.026c-.207.299-.666.506-1.4.621-.757.138-.941-.276-.964-.46-.16-.667.551-1.725 1.193-2.024.368-.161.781-.092.895.046.528.62.276 1.817.276 1.817zm34.9-.322c-.459 1.38-1.079 2.852-2.295 3.013-.413.046-.757-.046-1.033-.276-.413-.368-.596-.713-.55-1.978.069-2.944 1.606-10.281 3.671-10.373a.916.916 0 0 1 .757.322c.436.483.62 1.403.482 2.507l-.023.138s-2.18.092-2.409 3.335c-.138 1.955 1.491 2.875 1.491 2.875l-.091.437zm.573-2.162c-.711-.437-.665-1.725-.298-2.208.183-.253.482-.276.642-.184-.023.805-.069 1.495-.344 2.392z"/></svg>