<svg width="443" height="98" viewBox="0 0 443 98" fill="none"
    xmlns="http://www.w3.org/2000/svg">
    <g clip-path="url(#clip0_551_2081)">
        <path d="M340.1 55.8C340.1 59 339.8 66.2 337.4 71C334.4 77.2 328.8 78.8 324.1 78.8C319.4 78.8 313.8 77.2 310.8 71C308.4 66.1 308.1 59 308.1 55.8V1.60004H283.3V60C283.3 67.1 284.2 77.2 291.7 85.6C301.3 96.4 315.8 97.5 324.1 97.5C332.4 97.5 346.9 96.4 356.5 85.6C364 77.2 364.9 67.1 364.9 60V1.60004H340.1V55.8Z" fill="#3DAE2B"/>
        <path d="M232.1 75.6H231.8L211.4 1.60004H185.2L216.1 95.8H246.4L277.8 1.60004H252.6L232.1 75.6Z" fill="#3DAE2B"/>
        <path d="M141.1 0C133.1 0 118.1 1.2 107.1 12.5C96.2 23.7 94.8 39.4 94.8 48.7C94.8 58 96.2 73.7 107.1 84.9C118.3 96.3 133.6 97.4 141.5 97.4C149.4 97.4 164.7 96.3 175.9 84.9C186.8 73.7 188.1 58 188.1 48.7C188.1 39.4 186.8 23.7 175.9 12.5C164.9 1.2 149.9 0 141.9 0H141.1ZM156.8 71.2C153.9 75.4 148.9 78.9 141.5 78.9C134 78.9 129.1 75.4 126.2 71.2C121.1 64.3 120.5 54.8 120.5 48.7C120.5 42.6 121.2 33.1 126.2 26.2C129.1 22 134.1 18.5 141.5 18.5C149 18.5 153.9 22 156.8 26.2C161.9 33.1 162.5 42.6 162.5 48.7C162.5 54.8 161.9 64.3 156.8 71.2Z" fill="#3DAE2B"/>
        <path d="M434.1 46.6C429.2 42.6 420.2 39.6 415.6 38.4L414.1 38C406.4 35.9 401.8 34.1 399.8 31.5C399 30.6 398.4 28.9 398.4 27.1C398.4 24.8 399.5 22 403.2 20.3C407 18.5 411.4 18.4 414.6 18.5C420.1 18.7 430 21.4 434.9 26.8C434.9 26.8 438.3 19.8 436.7 13.9C434.9 7.10002 429.8 3.40002 424.7 1.70002C420.7 0.400025 414.8 -0.0999756 411.5 -0.0999756H410.9C402.4 -0.0999756 394.9 1.30002 387.9 4.90002C377.3 10.4 373 18.9 373 29.2C373 32.8 373.8 37.3 375.3 40.7C378.8 48.2 386.6 52.9 394 55.2L397.9 56.4C404.7 58.5 409.9 59.8 413.5 62.6C415.8 64.4 417.1 66.4 417.1 69.6C417.1 72.8 415.5 74.8 413.8 76.1C411 78.3 405.6 78.9 401.7 78.9C395.3 78.9 384.6 76.4 376.1 67C376.1 67 373.4 75 374.8 81.3C376.2 87.5 381.7 91.5 386.4 93.8C391.6 96.3 398.7 97.5 403.9 97.5C413.1 97.5 423.7 96 431.9 89.8C437.2 85.8 442.5 78.6 442.5 66.4C442.5 59.6 440.9 52.1 434.1 46.6Z" fill="#3DAE2B"/>
        <path d="M63.5 65.3H63.2C63.2 65.3 48.4 35.2 41.8 21.8C35.2 8.40001 21.7 1.20001 9.5 1.20001H0V95.7H22.8L22 31.2H22.3C22.3 31.2 39.8 66 44.7 75.6C51.9 89.6 61.7 95.7 74.9 95.7H85.7V1.20001H63.1L63.5 65.3Z" fill="#3DAE2B"/>
    </g>
    <defs>
        <clipPath id="clip0_551_2081">
            <rect width="442.5" height="97.5" fill="white"/>
        </clipPath>
    </defs>
</svg>